<?xml version="1.0" encoding="UTF-8"?>
<svg width="30px" height="30px" viewBox="0 0 30 30" version="1.1" xmlns="http://www.w3.org/2000/svg" xmlns:xlink="http://www.w3.org/1999/xlink">
<!-- Generator: Sketch 40.3 (33839) - http://www.bohemiancoding.com/sketch -->
<title>book-green</title>
    <desc>Created with Sketch.</desc>
    <defs></defs>
    <g id="Page-1" stroke="none" stroke-width="1" fill="none" fill-rule="evenodd">
        <g id="book-green" fill="#00AF89">
            <path d="M19.6666667,4 C17.0222222,4 15,6.02222222 15,8.66666667 C15,6.02222222 12.9777778,4 10.3333333,4 L1,4 L1,24.2222222 L10.3333333,24.2222222 C12.9777778,24.2222222 15,25.7777778 15,27.3333333 C15,25.7777778 17.0222222,24.2222222 19.6666667,24.2222222 L29,24.2222222 L29,4 L19.6666667,4 L19.6666667,4 Z M27.4444444,22.6666667 L19.6666667,22.6666667 C17.0222222,22.6666667 16.5555556,23.2888889 16.5555556,23.2888889 L16.5555556,9.44444444 C16.5555556,7.26666667 18.2666667,5.55555556 20.4444444,5.55555556 L27.4444444,5.55555556 L27.4444444,22.6666667 L27.4444444,22.6666667 Z" id="Page-1"></path>
        </g>
    </g>
</svg>
